<svg xmlns="http://www.w3.org/2000/svg" viewBox="0 0 16 16"><rect width="16" height="16" fill="#eee" rx="4"/><path d="M11.85 8.6c-.04-.95-.18-1.9-.18-2.84 0-.77.14-1.57-.14-2.3l.03-.25c.08-.39-1.16-.18-1.34.17-.1.1-.18.21-.14.35 0 .04.03.07.03.1a35.57 35.57 0 0 1-.92 3.33c-.14.42-.32.84-.46 1.27-.21-.39-.43-.78-.6-1.2-.5-1.22-.93-2.45-1.53-3.6.07-.53-1.13-.5-1.38 0a3 3 0 0 0-.14 1.85c.1.74.14 1.44.14 2.17 0 1.4.14 2.8.14 4.2-.14.15-.18.32-.03.5l.2.2c.33.25 1.25.04 1.25-.45 0-1.47-.1-2.9-.14-4.38V7.3c.03.04.03.1.07.14.21.56.46 1.13.78 1.65.32.53.46 1.09.64 1.65-.07.07-.11.17-.07.24 0 .07.03.1.1.14.21.21.68.1.89 0 .1-.03.21-.1.28-.14.1-.07.32-.24.25-.42 0-.03-.04-.07-.04-.1.18-.46.25-.91.36-1.4.1-.5.28-.99.46-1.48.04.21.04.46.07.67.07.91 0 1.79 0 2.7 0 .31.04.56.07.87.04.1.14.63.1.67-.2.2-.13.45.15.49.32.07.74-.04 1-.25.42-.38.2-1.01.13-1.5-.2-.84-.03-1.79-.03-2.63Z"/></svg>