<svg xmlns="http://www.w3.org/2000/svg"><style>:root svg:not(:target){display:none}</style><svg viewBox="0 0 50 26" id="arrow"><path d="M0 11h42.3l-8.1-8.2L37 0l13 13-13 13-2.8-2.8 8.1-8.2H0v-4Z"></path></svg><svg viewBox="0 0 22 22" id="cart"><path d="M20.27 8.86h-3.4l-3.3-6.48c-.2-.38-.58-.48-.97-.28-.39.19-.48.57-.29.95l3 5.8H6.5l3-5.8c.2-.38 0-.76-.29-.95-.38-.2-.77 0-.97.28l-3.3 6.48h-3.2a.76.76 0 0 0-.77.76c0 .38.29.76.77.76h.2l.87 2.86c-.2.1-.3.28-.3.57 0 .38.3.67.69.67L4.84 20h12.32l1.65-5.52c.39 0 .68-.29.68-.67 0-.2-.1-.48-.29-.57l.87-2.86h.2c.39 0 .77-.28.77-.76a.76.76 0 0 0-.77-.76Zm-4.37 9.62H5.8l-1.16-4.1h12.52l-1.26 4.1Zm1.55-5.53H4.15l-.77-2.66h14.85l-.78 2.66Z"></path></svg><svg viewBox="0 0 52 52" id="checkbox-tick"><path d="m41.68 16.68-20 20-10.36-10.36" stroke="#000" stroke-width="2" fill="none"></path></svg><svg viewBox="0 0 52 52" id="checkbox"><path stroke="#000" stroke-width="2" d="M1 1h50v50H1z" fill="none"></path></svg><svg viewBox="0 0 50 21" preserveAspectRatio="none" id="cos"><path d="M0 4c12.5 0 12.5 13 25 13S37.5 4 50 4" stroke="#fff" stroke-width="8" fill="none"></path></svg><svg viewBox="0 0 55 55" id="eco"><path fill="#63D1BB" d="M30.5 48C39.58 48 47 40.65 47 31.66A16.4 16.4 0 0 0 30.5 48ZM18.74 26.65c0 2.55 2.07 4.5 4.54 4.5.93 0 1.86-.31 2.58-.82v.3c0 2.56 2.06 4.5 4.54 4.5a4.49 4.49 0 0 0 4.53-4.5v-.3c.73.5 1.65.82 2.58.82a4.49 4.49 0 0 0 4.54-4.5 4.43 4.43 0 0 0-2.58-4.09 4.43 4.43 0 0 0 2.58-4.08 4.54 4.54 0 0 0-7.12-3.68v-.3c0-2.56-2.06-4.5-4.53-4.5a4.49 4.49 0 0 0-4.54 4.5v.3a4.54 4.54 0 0 0-2.58-.82 4.49 4.49 0 0 0-4.54 4.5 4.43 4.43 0 0 0 2.58 4.08 4.61 4.61 0 0 0-2.58 4.1Zm11.76-8.68a4.49 4.49 0 1 1 0 8.99 4.49 4.49 0 1 1 0-9ZM14 31.66C14 40.65 21.43 48 30.5 48A16.4 16.4 0 0 0 14 31.66Z"></path></svg><svg viewBox="0 0 47 82" id="flag"><path fill="#63D1BB" d="M7.77 4.77v38.56L47 24 7.77 4.77ZM0 81.9V.9h3.83v81H0Z"></path><path fill="#231F20" d="M3.83 1H0v81h3.83V1Z"></path></svg><svg viewBox="0 0 55 55" id="home"><path fill="#63D1BB" d="M40.95 21.75c-3.64-1-7.89-1.69-12.54-1.69-2.93 0-5.56.2-7.79.6L13.75 16H.1l5.87 6.15h8.49c-4.65 1.58-6.88 3.47-6.88 3.47v3.76s2.33 1.89 6.98 3.47h-8.7L0 39h13.65l6.87-4.66a49.05 49.05 0 0 0 20.32-1.09 10.14 10.14 0 0 1-1.92-5.85c.1-1.98.91-3.87 2.03-5.65Zm3.54.99c-1.32 1.59-2.03 3.17-2.03 4.76 0 1.59.71 3.17 2.03 4.76C50.96 30.08 55 27.5 55 27.5s-4.04-2.58-10.51-4.76Z"></path></svg><svg viewBox="0 0 35 35" id="htmlacademy"><path fill="#63D1BB" d="M17.65 0h-.1L4 1.4v24.62L17.55 34 31 26.02V1.4L17.65 0ZM29.1 12.06 17.55 5.28v-.1h-.1l-.1-.1v.1L5.9 12.06V3.1l11.54-1.2 11.64 1.2v8.97ZM17.45 6.78l11.54 6.68-4.51 2.6-7.13-4.2v1.4l5.92 3.5-.9.49-5.02-3v1.4l3.81 2.3-.8.5-3.01-1.8v1.4l1.9 1.1-1.8 1.1-11.44-6.69 11.44-6.78ZM5.91 15.06l11.44 6.78v1l-7.93-4.7v1.4l8.03 4.79v1.1l-8.03-4.7v1.4l8.03 4.8 8.13-4.9v-5.18l3.41-2v9.98L17.45 31.7 5.91 24.93v-9.87Z"></path></svg><svg fill="none" viewBox="0 0 62 62" id="interior"><path d="M26.16 37.72c-.3 1-.2 2.19 0 3.58.5 2.59 1.7 5.97 2.4 9.65h5.08c.7-3.58 1.9-6.96 2.5-9.65.3-1.4.3-2.69 0-3.58-.3-.9-.9-1.6-2-2.3h-5.98c-1.2.7-1.8 1.4-2 2.3Zm11.77 19.9H24.17c-1.3 0-2.3 1-2.3 2.19V62h18.36v-2.19c0-1.2-1-2.19-2.3-2.19Zm7.09-55.43H33.34c0-1.2-1-2.19-2.29-2.19-1.3 0-2.3 1-2.3 2.19H17.09L11 27.57c.8-.5 1.6-1 2.6-1 1.39 0 2.19.8 2.89 1.4.7.6 1.2.8 1.4.8.3 0 .8-.3 1.49-.8.7-.5 1.6-1.4 2.9-1.4 1.29 0 2.19.8 2.88 1.4.7.5 1.2.8 1.5.8.1 0 .3-.1.6-.2.2-.1.5-.4.9-.6.5-.4 1.1-1 2-1.2.3-.1.6-.1.89-.1 1.3 0 2.2.8 2.9 1.4.7.5 1.19.8 1.49.8.3 0 .8-.3 1.4-.8.7-.6 1.6-1.4 2.89-1.4 1.4 0 2.2.8 2.9 1.4.29.3.59.5.89.6.2.1.4.2.6.2.3 0 .8-.3 1.4-.9.7-.6 1.59-1.4 2.89-1.4 1 0 1.8.5 2.59 1L45.02 2.19ZM34.44 53.14h-6.88c-.7 0-1.1.5-1.1 1.1 0 .6.5 1.1 1.1 1.1h6.88c.7 0 1.1-.5 1.1-1.1.1-.6-.4-1.1-1.1-1.1Zm-3.39-24.38c-.1 0-.3.1-.6.2-.2.1-.4.3-.6.4v3.68h2.3v-3.58c-.5-.4-.9-.7-1.1-.7Z" fill="#149080"></path></svg><svg viewBox="0 0 55 55" id="knit"><path fill="#63D1BB" d="M9.3 26.95c-.4 2.08-.4 4.16 0 6.24l4.18-3.17-4.17-3.07Zm24.55-12.36a17.96 17.96 0 0 0-15.58.4l7.64 5.53 7.94-5.93Zm9.68 11.47-4.9 3.66 5 3.66c.5-2.37.5-4.94-.1-7.32Zm-25.16 19a17.84 17.84 0 0 0 16 .1l-8.26-6.04-7.74 5.94Zm-1.32-17.81-6.32-4.55c-.3.7-.61 1.38-.81 2.08l5.4 3.95 1.73-1.48Zm10.89 10.58 8.46 6.14c.3-.2.61-.4.81-.6.3-.2.61-.49.92-.79l-8.45-6.13-1.74 1.38Zm-7.33-13.25-7.54-5.44c-.5.5-.91 1.09-1.32 1.68l7.03 5.14 1.83-1.38ZM31.5 35.16l8.26 6.04c.5-.5.92-1.09 1.32-1.68l-7.84-5.74-1.73 1.38ZM24.18 21.9l-7.85-5.73c-.2.1-.4.3-.6.4-.42.3-.82.59-1.13.98l7.84 5.64 1.74-1.28Zm10.89 10.5 7.13 5.14c.3-.7.62-1.29.92-1.98L36.91 31l-1.84 1.38Zm.82-16.73L9.92 35.37c.2.68.5 1.38.81 2.07l27-20.48c-.52-.5-1.13-.89-1.84-1.29Zm4.38 3.86c-.3-.4-.61-.79-.92-1.09l-27.5 20.78c.2.5.51.89.82 1.19.1.2.3.4.4.5l27.7-20.78c-.2-.2-.3-.4-.5-.6Zm1.63 2.37L14.7 42.49c.51.5 1.12 1 1.74 1.39L42.92 23.9c-.3-.7-.61-1.39-1.02-1.98Z"></path></svg><svg viewBox="0 0 55 55" id="like"><path fill="#63D1BB" d="M47 24.45c0-4.66-4.02-8.45-8.96-8.45-3.5 0-6.5 1.94-8.04 4.66A9.12 9.12 0 0 0 21.96 16C17.02 16 13 19.79 13 24.45 13 33.29 28.15 43 30 43c1.96 0 17-9.62 17-18.55Z"></path></svg><svg viewBox="0 0 32 32" id="mail"><path d="M28 9H4c-2.2 0-4 1.8-4 4v13c0 2.2 1.8 4 4 4h24c2.2 0 4-1.8 4-4V13c0-2.2-1.8-4-4-4ZM2 14.3l7 5.3-7 5.3V14.3ZM30 26a2 2 0 0 1-2 2H4a2 2 0 0 1-2-2l7.8-5.9 4.4 3.3a3 3 0 0 0 3.6 0l4.4-3.3L30 26Zm0-1.2-7-5.3 7-5.3v10.6Zm-12.8-2.2c-.4.3-.8.4-1.2.4-.4 0-.9-.1-1.2-.4l-4.1-3.1-.8-.6L2 13c0-1.1.9-2 2-2h24a2 2 0 0 1 2 2l-12.8 9.6Z"></path></svg><svg viewBox="0 0 67 100" id="map-pin"><path fill="#fff" d="M57.13 9.15c-13.1-12.2-34.21-12.2-47.3 0-13.1 12.2-13.1 31.95 0 44.15 0 0 23.64 21.63 23.64 46.63 0-25 23.66-46.63 23.66-46.63 13.1-12.1 13.1-31.95 0-44.15Z"></path><path fill="#6BC6B3" d="M47.69 45.16c-.61-3.27.1-6.84 0-10.21-.1-3.77-.71-7.44-.71-11.12 0-2.97.5-6.15-.51-9.02.1-.3.1-.7.2-1 .3-1.48-4.67-.69-5.38.6-.5.4-.7.9-.5 1.29.1.1.1.2.1.4-.92 4.46-2.24 8.73-3.76 13.1-.61 1.68-1.22 3.27-1.83 4.85a67.03 67.03 0 0 1-2.33-4.66c-1.93-4.76-3.76-9.62-6.1-14.19.31-2.08-4.56-1.88-5.48 0-1.11 2.38-1.01 4.77-.6 7.25.4 2.87.5 5.65.5 8.53.1 5.55.51 11 .61 16.57-.5.59-.6 1.19-.1 1.88.2.3.5.5.81.8 1.32.99 4.98.2 4.98-1.8 0-5.75-.4-11.4-.61-17.15v-1.7c.1.2.2.4.2.6.91 2.19 1.83 4.37 3.15 6.45 1.22 2.09 1.83 4.27 2.54 6.45-.3.3-.41.6-.3 1-.11.29.1.39.4.49.91.8 2.64.4 3.55 0l1.22-.6c.5-.3 1.22-.99 1.01-1.58 0-.1-.1-.3-.1-.4.71-1.79 1.02-3.57 1.42-5.46.41-1.98 1.12-3.87 1.83-5.75.1.9.1 1.69.2 2.58.3 3.57 0 7.04 0 10.61 0 1.2.1 2.29.3 3.38.11.5.52 2.48.41 2.58-.9.79-.6 1.78.51 1.98 1.32.3 2.95-.1 3.96-1 1.63-1.38.81-3.76.4-5.75Z"></path></svg><svg viewBox="0 0 21 21" id="menu-close"><path d="M21 1.37 19.57 0l-9.02 8.59L1.43 0 0 1.37l9.01 8.68L0 18.63 1.43 20l9.12-8.59L19.57 20 21 18.63l-9.01-8.58L21 1.37Z"></path></svg><svg id="menu" viewBox="0 0 20 20"><path d="M20 3H0v2h20V3ZM20 9H0v2h20V9ZM20 15H0v2h20v-2Z" fill="#231F20"></path></svg><svg viewBox="0 0 101 77" id="play"><path d="M97.285 18.147s-.903-7.018-3.815-10.126c-3.614-4.01-7.73-4.11-9.538-4.311C70.58 2.707 50.5 2.707 50.5 2.707h-.1s-20.08 0-33.433 1.003c-1.907.2-5.923.3-9.538 4.31-2.81 3.109-3.815 10.127-3.815 10.127s-.903 8.222-.903 16.443v7.72c0 8.221.903 16.443.903 16.443s.904 7.018 3.815 10.126c3.615 4.01 8.434 3.91 10.542 4.311 7.63.802 32.529 1.003 32.529 1.003s20.08 0 33.432-1.003c1.908-.2 5.924-.3 9.538-4.311 2.811-3.108 3.815-10.126 3.815-10.126s.904-8.222.904-16.443v-7.72c0-8.222-.904-16.443-.904-16.443Z" fill="#63D1BB"></path><path d="M50.4 77c-1.004 0-25.1-.3-32.73-1.003h-.2c-.302-.1-.704-.1-1.105-.2-2.51-.3-7.229-.902-10.843-5.013-3.414-3.61-4.418-10.828-4.518-11.63C1.004 58.853 0 50.63 0 42.41v-7.72c0-8.321.904-16.443.904-16.743v-.1c.1-.803 1.204-7.921 4.517-11.63 4.016-4.412 8.534-4.914 10.743-5.114.2 0 .402 0 .502-.1h.1C30.12 0 50.2 0 50.4 0h.1c.2 0 20.28 0 33.633 1.003h.1c.201 0 .302 0 .503.1 2.208.2 6.726.702 10.742 5.113 3.414 3.61 4.418 10.828 4.518 11.63 0 .301 1.004 8.523 1.004 16.844v7.72c0 8.322-.904 16.443-1.004 16.744v.1c-.1.802-1.205 8.02-4.518 11.63-4.016 4.412-8.534 4.913-10.742 5.113-.201 0-.402 0-.502.1h-.1C70.78 77 50.6 77 50.4 77Zm-32.027-6.417c7.53.702 31.324 1.003 32.127 1.003.703 0 20.18 0 33.131-1.003.201 0 .402 0 .603-.1 1.807-.2 4.618-.501 7.228-3.309 1.807-2.005 2.912-6.918 3.113-8.622.1-.501.903-8.422.903-16.142v-7.72c0-7.82-.903-15.64-1.004-16.142-.301-2.406-1.405-6.817-3.112-8.522-2.61-2.908-5.422-3.108-7.229-3.309-.2 0-.401 0-.602-.1C70.379 5.615 50.6 5.615 50.4 5.615h-.1c-.202 0-20.08 0-33.132 1.002-.2 0-.402 0-.602.1-1.808.201-4.619.502-7.229 3.309-1.807 2.005-2.912 6.918-3.112 8.622-.1.602-.904 8.422-.904 16.142v7.72c0 7.72.904 15.641.904 16.142.3 2.407 1.405 6.818 3.112 8.522 2.31 2.607 5.321 3.008 7.53 3.31.602-.101 1.004 0 1.506.1Z" fill="#fff"></path><path d="M38.452 20.553v35.793L68.371 38.5 38.452 20.553Z" fill="#fff"></path></svg><svg viewBox="0 0 55 55" id="present"><path fill="#63D1BB" d="M12.03 44h12.61V30.27H12.03V44Zm28.36-23.3h-7.37c.5-.3 1-.5 1.41-.8 1.62-1.09 2.42-2.57 2.42-3.95 0-1.18-.6-2.17-1.41-2.86A4.72 4.72 0 0 0 32.41 12c-1.2 0-2.42.4-3.33 1.09a10.36 10.36 0 0 0-3.43 4.05c0 .1-.1.2-.1.2-.3-.6-.6-1.2-1-1.78a8.5 8.5 0 0 0-2.53-2.47C21 12.49 19.9 12 18.69 12s-2.32.5-3.23 1.28a4.39 4.39 0 0 0-1.41 3.07c0 .69.2 1.48.6 2.17.6.89 1.41 1.58 2.63 2.17H10.6c-.9 0-1.61.7-1.61 1.58v5.83h15.54v-7.4h1.92v7.4H42v-5.83c0-.89-.7-1.58-1.61-1.58Zm-22.5-2.28c-.61-.4-1.02-.79-1.22-1.09-.2-.4-.3-.69-.3-.98 0-.5.2-1 .7-1.49.4-.4 1.01-.69 1.62-.69.7 0 1.41.2 2.02.7a7.6 7.6 0 0 1 2.62 3.15c.3.7.6 1.39.8 2.08-3.12-.3-5.14-.99-6.25-1.68Zm10.59-1.58a6.84 6.84 0 0 1 1.91-1.88c.71-.5 1.42-.69 2.02-.69.6 0 1.11.2 1.52.5.4.3.6.69.6 1.18 0 .5-.3 1.28-1.51 2.07-1.11.8-3.13 1.68-6.16 2.28.3-1.19.91-2.47 1.62-3.46ZM26.46 44h12.61V30.27H26.46V44Z"></path></svg><svg viewBox="0 0 52 52" id="radio-tick"><circle r="10" cx="26" cy="26" fill="#62D1BA"></circle></svg><svg viewBox="0 0 52 52" id="radio"><circle r="24" cx="26" cy="26" stroke="#000" stroke-width="2" fill="none"></circle></svg><svg viewBox="0 0 22 22" id="search"><path d="m19.7 18.06-3.48-3.48a7.63 7.63 0 0 0 1.53-4.7c0-4.4-3.48-7.88-7.88-7.88A7.81 7.81 0 0 0 2 9.88c0 4.4 3.48 7.87 7.88 7.87 1.73 0 3.37-.61 4.7-1.53l3.48 3.47c.2.2.4.31.82.31.6 0 1.12-.51 1.12-1.13 0-.2-.1-.5-.3-.81ZM4.24 9.88a5.67 5.67 0 0 1 5.63-5.63 5.67 5.67 0 0 1 5.62 5.63 5.67 5.67 0 0 1-5.63 5.62 5.67 5.67 0 0 1-5.62-5.63Z"></path></svg><svg fill="none" viewBox="0 0 55 55" id="style"><path fill="#63D1BB" d="M49.07 11.76H9.93A3.94 3.94 0 0 0 6 15.83v20.34c0 2.3 1.71 4.07 3.93 4.07h39.14A3.94 3.94 0 0 0 53 36.17V15.83a4.08 4.08 0 0 0-3.93-4.07ZM9.03 37.84V14.68h40.54v23.16H9.03Zm3.93-4.07h32.68V18.75H12.96v15.02ZM29.5 20.73c2.92 0 5.35 2.5 5.35 5.53a5.47 5.47 0 0 1-5.35 5.53 5.47 5.47 0 0 1-5.35-5.53 5.4 5.4 0 0 1 5.35-5.53Z"></path></svg><svg viewBox="0 0 32 32" id="tel"><path d="M20.44 28h-1.1a17.63 17.63 0 0 1-11.2-5.73A18.8 18.8 0 0 1 3 10.72V9.33c.1-.89.5-1.48 1.1-2.07.61-.7 1.62-1.48 2.53-1.58.7 0 1.81.5 2.22 1.09.4.49.6 1.58.8 2.37.2.88.6 1.97.5 2.76-.2 1.19-1.8 1.68-2.21 2.57a16.4 16.4 0 0 0 7.56 8.2c.8-.5 1.61-1.88 2.82-1.88.4 0 1.01.2 1.41.3.5.1.91.3 1.31.49.71.3 2.02.6 2.42 1.19.4.59.7 1.58.6 2.17-.3 1.28-2.41 2.66-3.62 3.06ZM15.6 5.48a10.8 10.8 0 0 1 10.9 10.67H28C28 9.43 22.46 4 15.6 4v1.48Zm0 7.71v1.58c.8 0 1.41.59 1.41 1.38h1.61a3 3 0 0 0-3.02-2.96Zm0-3.07a6.11 6.11 0 0 1 6.15 6.03h1.61c0-4.15-3.42-7.5-7.66-7.5v1.47h-.1Z"></path></svg><svg viewBox="0 0 28 28" id="telegram"><path fill="#231F20" d="M23.46 6.15c.18.15.27.38.23.61l-2.63 15.76a.66.66 0 0 1-1.01.44l-7.88-5.25a.66.66 0 0 1-.15-.96l2.61-3.26-4.36 2.9a.66.66 0 0 1-.65.05L4.36 13.8a.66.66 0 0 1 .08-1.2l18.38-6.57a.66.66 0 0 1 .64.11ZM6.33 13.32l3.53 1.77 7.56-5.04a.66.66 0 0 1 .88.96l-4.8 6 6.43 4.3 2.28-13.66-15.88 5.67Z"></path></svg><svg viewBox="0 0 62 62" id="toys"><path fill="#149080" d="m1 45 27.4 16V37.54L1 21.44v23.55Zm51.3-31.52V16c0 1.81-3.5 3.32-7.7 3.32-4.3 0-7.7-1.5-7.7-3.32v-4.13c.3 1.71 3.6 3.12 7.7 3.12 4.3 0 7.7-1.5 7.7-3.32 0-1.81-3.5-3.32-7.7-3.32h-1l-5-2.92v3.12c0 1.81-3.5 3.32-7.7 3.32-2.7 0-5-.6-6.4-1.5-.2-.2-.4-.41-.7-.61-.4-.4-.6-.8-.6-1.21V5.53l-4.8 2.82h-1.1c-4.3 0-7.7 1.5-7.7 3.32 0 1.81 3.5 3.32 7.7 3.32 4.1 0 7.4-1.4 7.7-3.12V16c0 1.81-3.5 3.32-7.7 3.32-4.3 0-7.7-1.5-7.7-3.32v-2.42l-6 3.53 27.5 16.1 27.4-16-6.2-3.73ZM38.7 23.75c0 1.81-3.5 3.32-7.7 3.32-4.3 0-7.7-1.5-7.7-3.32v-4.13c.3 1.72 3.6 3.13 7.7 3.13s7.4-1.41 7.7-3.13v4.13Zm-5.1 14V61L61 45V21.73l-27.4 16Zm-2.7-30.1c4.3 0 7.7-1.52 7.7-3.33S35.1 1 30.9 1c-4.3 0-7.7 1.51-7.7 3.32 0 1.81 3.4 3.32 7.7 3.32Z"></path></svg><svg viewBox="0 0 33 22" id="video"><path d="m26.75 10 6.006-4v16l-6.006-4v-8Zm-2.002 0v8c0 2.2-1.801 4-4.003 4H4.729a4.014 4.014 0 0 1-4.003-4v-8c0-2.2 1.801-4 4.003-4h10.01c0-1.1.9-2 2.002-2V2H5.73c-.601 0-1.002-.4-1.002-1s.4-1 1.001-1h12.012c.6 0 1 .4 1 1v3c1.102 0 2.003.9 2.003 2 2.202 0 4.003 1.8 4.003 4Zm-12.011 0H4.729v8h8.008v-8Zm8.008 1c0-.6-.4-1-1.001-1H15.74c-.6 0-1.001.4-1.001 1s.4 1 1 1h4.005c.6 0 1-.4 1-1Z" fill="#63D1BB"></path></svg><svg viewBox="0 0 28 28" id="vkontakte"><path fill="#231F20" d="M1 8.34c0-.86.52-1.32 1.55-1.38l3.97.02c.26 0 .44.13.53.38.4 1.26.86 2.34 1.37 3.25.5.92 1.17 1.97 1.99 3.16.07.15.18.23.34.23.13 0 .22-.06.3-.18l.07-.28.03-4.35c0-.3-.07-.5-.23-.6-.15-.1-.43-.18-.83-.23-.32-.05-.48-.23-.48-.55 0-.07 0-.12.02-.15.38-1.09 1.44-1.63 3.2-1.63l1.5-.03c.67 0 1.23.16 1.67.48.44.32.67.82.67 1.5v5.72c.12.08.24.12.34.12.27 0 .5-.15.7-.45 1.95-2.58 3-4.31 3.17-5.18 0-.02.01-.06.05-.13.12-.25.33-.47.61-.65.29-.19.53-.31.75-.38a.55.55 0 0 1 .24-.05h4.13l.26.03c.36 0 .63.16.83.47.07.1.12.21.15.33a2.4 2.4 0 0 1 .06.55v.18a6.11 6.11 0 0 1-.94 2.2c-.5.78-1.15 1.62-1.93 2.53-.79.9-1.27 1.5-1.47 1.78-.16.2-.24.39-.24.56 0 .13.07.28.21.45l3.9 4.63c.2.26.31.56.31.88 0 .38-.16.7-.48.95-.32.25-.7.4-1.14.43l-.46.02h-4.04c-.02 0-.06 0-.11.02a.86.86 0 0 1-.1.01c-.4 0-.76-.16-1.1-.48-.12-.13-.96-1.12-2.5-2.97a1.39 1.39 0 0 0-.38-.32 38.47 38.47 0 0 0-.53 2.24l-.08.42a1.4 1.4 0 0 1-1.12 1.06l-.37.02h-2.61c-1.48 0-2.95-.63-4.41-1.9a19.3 19.3 0 0 1-3.96-4.95 47.51 47.51 0 0 1-3.28-7.05A1.92 1.92 0 0 1 1 8.34Zm16.01 6.51c-.37 0-.7-.1-1.01-.29a.9.9 0 0 1-.45-.79V8c0-.34-.1-.58-.27-.72-.18-.14-.49-.21-.93-.21l-1.52.05c-.76 0-1.34.12-1.73.37.78.36 1.17.93 1.17 1.71v4.43a1.5 1.5 0 0 1-.53 1.04c-.32.28-.68.42-1.07.42-.53 0-.94-.24-1.22-.73a26.16 26.16 0 0 1-3.1-5.63l-.23-.66-3.55-.02c-.23 0-.36.01-.38.03-.03.03-.04.1-.04.22 0 .15.01.3.05.48l.56 1.4c1.49 3.64 3.11 6.51 4.86 8.6 1.75 2.1 3.47 3.15 5.16 3.15h2.66c.1 0 .19-.03.24-.09.05-.06.1-.17.13-.34l.06-.25.5-2.21c.15-.3.27-.5.38-.6.2-.2.42-.28.69-.28.43 0 .86.24 1.3.73l2.27 2.71c.14.22.3.33.45.33h4.4c.53 0 .8-.13.8-.38a.47.47 0 0 0-.08-.25l-3.87-4.55c-.3-.35-.45-.73-.45-1.13 0-.4.14-.8.43-1.16.23-.34.68-.9 1.34-1.67.67-.78 1.25-1.51 1.75-2.19.5-.68.82-1.3.98-1.85l.08-.33a.37.37 0 0 1-.02-.16c0-.07-.01-.14-.03-.19h-4.18c-.27.1-.48.25-.64.45L21.8 9c-.45 1.16-1.6 2.94-3.5 5.36-.36.33-.8.5-1.3.5Z"></path></svg><svg viewBox="0 0 50 33" preserveAspectRatio="none" id="wave"><path d="M50 33V1C37.5 1 37.5 14 25 14S12.5 1 0 1v32" fill="#fff"></path></svg><svg viewBox="0 0 28 28" id="youtube"><path fill="#231F20" d="m17.85 13.8-5.24-3.5a.65.65 0 0 0-1.01.55v6.98a.65.65 0 0 0 1.01.54l5.24-3.49a.65.65 0 0 0 0-1.09Zm-4.94 2.8v-4.53l3.4 2.27-3.4 2.27Zm12.48-8.56a2.4 2.4 0 0 0-1.45-1.63C20.22 4.98 14.25 5 14 5s-6.22-.02-9.94 1.4a2.4 2.4 0 0 0-1.45 1.64 25.32 25.32 0 0 0-.61 6.3c0 3.26.33 5.22.61 6.3a2.4 2.4 0 0 0 1.45 1.63c3.72 1.43 9.69 1.4 9.94 1.4h.08c.75 0 6.31-.04 9.86-1.4a2.4 2.4 0 0 0 1.45-1.64c.28-1.07.61-3.03.61-6.3 0-3.25-.33-5.22-.61-6.29Zm-1.27 12.27a1.1 1.1 0 0 1-.65.74c-3.5 1.34-9.4 1.32-9.47 1.32-.07 0-5.98.02-9.47-1.32a1.09 1.09 0 0 1-.65-.74c-.27-1-.57-2.85-.57-5.97 0-3.12.3-4.97.57-5.97a1.1 1.1 0 0 1 .65-.74C8.03 6.29 13.93 6.3 14 6.3c.07 0 5.98-.02 9.47 1.32a1.1 1.1 0 0 1 .65.74c.27 1 .57 2.85.57 5.97 0 3.12-.3 4.96-.57 5.97Z"></path></svg></svg>