<svg xmlns="http://www.w3.org/2000/svg" viewBox="0 0 22 22"><path d="M20.27 8.86h-3.4l-3.3-6.48c-.2-.38-.58-.48-.97-.28-.39.19-.48.57-.29.95l3 5.8H6.5l3-5.8c.2-.38 0-.76-.29-.95-.38-.2-.77 0-.97.28l-3.3 6.48h-3.2a.76.76 0 0 0-.77.76c0 .38.29.76.77.76h.2l.87 2.86c-.2.1-.3.28-.3.57 0 .38.3.67.69.67L4.84 20h12.32l1.65-5.52c.39 0 .68-.29.68-.67 0-.2-.1-.48-.29-.57l.87-2.86h.2c.39 0 .77-.28.77-.76a.76.76 0 0 0-.77-.76Zm-4.37 9.62H5.8l-1.16-4.1h12.52l-1.26 4.1Zm1.55-5.53H4.15l-.77-2.66h14.85l-.78 2.66Z"/></svg>
