<svg xmlns="http://www.w3.org/2000/svg" viewBox="0 0 55 55"><path fill="#63D1BB" d="M9.3 26.95c-.4 2.08-.4 4.16 0 6.24l4.18-3.17-4.17-3.07ZM33.85 14.59a17.96 17.96 0 0 0-15.58.4l7.64 5.53 7.94-5.93ZM43.53 26.06l-4.9 3.66 5 3.66c.5-2.37.5-4.94-.1-7.32ZM18.37 45.06a17.84 17.84 0 0 0 16 .1l-8.26-6.04-7.74 5.94ZM17.05 27.25l-6.32-4.55c-.3.7-.61 1.38-.81 2.08l5.4 3.95 1.73-1.48ZM27.94 37.83l8.46 6.14c.3-.2.61-.4.81-.6.3-.2.61-.49.92-.79l-8.45-6.13-1.74 1.38ZM20.61 24.58l-7.54-5.44c-.5.5-.91 1.09-1.32 1.68l7.03 5.14 1.83-1.38ZM31.5 35.16l8.26 6.04c.5-.5.92-1.09 1.32-1.68l-7.84-5.74-1.73 1.38ZM24.18 21.9l-7.85-5.73c-.2.1-.4.3-.6.4-.42.3-.82.59-1.13.98l7.84 5.64 1.74-1.28ZM35.07 32.4l7.13 5.14c.3-.7.62-1.29.92-1.98L36.91 31l-1.84 1.38ZM35.89 15.67 9.92 35.37c.2.68.5 1.38.81 2.07l27-20.48c-.52-.5-1.13-.89-1.84-1.29ZM40.27 19.53c-.3-.4-.61-.79-.92-1.09l-27.5 20.78c.2.5.51.89.82 1.19.1.2.3.4.4.5l27.7-20.78c-.2-.2-.3-.4-.5-.6ZM41.9 21.9 14.7 42.49c.51.5 1.12 1 1.74 1.39l26.48-19.98c-.3-.7-.61-1.39-1.02-1.98Z"/></svg>
