<svg xmlns="http://www.w3.org/2000/svg" viewBox="0 0 101 101"><path fill="#63D1BB" d="M97.29 30.15s-.9-7.02-3.82-10.13c-3.61-4.01-7.73-4.11-9.54-4.31-13.35-1-33.43-1-33.43-1h-.1s-20.08 0-33.43 1c-1.91.2-5.93.3-9.54 4.31-2.81 3.1-3.82 10.13-3.82 10.13s-.9 8.22-.9 16.44v7.72c0 8.22.9 16.44.9 16.44s.9 7.02 3.82 10.13c3.61 4 8.43 3.9 10.54 4.31 7.63.8 32.53 1 32.53 1s20.08 0 33.43-1c1.91-.2 5.93-.3 9.54-4.31 2.81-3.1 3.82-10.13 3.82-10.13s.9-8.22.9-16.44v-7.72c0-8.22-.9-16.44-.9-16.44Z" stroke="#fff" stroke-width="5.4"/><path fill="#fff" d="M38.45 32.55v35.8L68.37 50.5 38.45 32.55Z"/></svg>
