<svg xmlns="http://www.w3.org/2000/svg" viewBox="0 0 32 32"><g fill="#000" opacity=".2"><path d="M20.44 28h-1.1a17.63 17.63 0 0 1-11.2-5.73A18.8 18.8 0 0 1 3 10.72V9.33c.1-.89.5-1.48 1.1-2.07.61-.7 1.62-1.48 2.53-1.58.7 0 1.81.5 2.22 1.09.4.49.6 1.58.8 2.37.2.88.6 1.97.5 2.76-.2 1.19-1.8 1.68-2.21 2.57a16.4 16.4 0 0 0 7.56 8.2c.8-.5 1.61-1.88 2.82-1.88.4 0 1.01.2 1.41.3.5.1.91.3 1.31.49.71.3 2.02.6 2.42 1.19.4.59.7 1.58.6 2.17-.3 1.28-2.41 2.66-3.62 3.06ZM15.6 5.48A10.8 10.8 0 0 1 26.5 16.15H28C28 9.43 22.46 4 15.6 4v1.48Z"/><path d="M15.6 13.19v1.58c.8 0 1.41.59 1.41 1.38h1.61a3 3 0 0 0-3.02-2.96ZM15.6 10.12a6.11 6.11 0 0 1 6.15 6.03h1.61c0-4.15-3.42-7.5-7.66-7.5v1.47h-.1Z"/></g></svg>
